<svg xmlns="http://www.w3.org/2000/svg" viewBox="0 0 1100 520" font-family="system-ui,-apple-system,sans-serif">
<rect width="1100" height="520" fill="#ffffff" rx="12"/>
<text x="550.0" y="28" text-anchor="middle" font-size="15" font-weight="700" fill="#1e293b">Cleaver Skill Effectiveness — 16 Scenarios × 12 Quality Dimensions</text>
<line x1="70" y1="420.0" x2="1070" y2="420.0" stroke="#e2e8f0" stroke-width="1"/>
<text x="62" y="424.0" text-anchor="end" font-size="10" fill="#64748b">0%</text>
<line x1="70" y1="328.75" x2="1070" y2="328.75" stroke="#e2e8f0" stroke-width="1"/>
<text x="62" y="332.75" text-anchor="end" font-size="10" fill="#64748b">25%</text>
<line x1="70" y1="237.5" x2="1070" y2="237.5" stroke="#e2e8f0" stroke-width="1"/>
<text x="62" y="241.5" text-anchor="end" font-size="10" fill="#64748b">50%</text>
<line x1="70" y1="146.25" x2="1070" y2="146.25" stroke="#e2e8f0" stroke-width="1"/>
<text x="62" y="150.25" text-anchor="end" font-size="10" fill="#64748b">75%</text>
<line x1="70" y1="55.0" x2="1070" y2="55.0" stroke="#e2e8f0" stroke-width="1"/>
<text x="62" y="59.0" text-anchor="end" font-size="10" fill="#64748b">100%</text>
<rect x="75.4" y="95.1" width="22" height="324.9" fill="#10b981" rx="3"/>
<rect x="101.4" y="299.6" width="22" height="120.5" fill="#94a3b8" rx="3"/>
<text x="99.4" y="90.1" text-anchor="middle" font-size="8" font-weight="600" fill="#10b981">+56</text>
<text x="99.4" y="436.0" text-anchor="middle" font-size="9" fill="#1e293b" transform="rotate(40 99.4 436.0)">AI Product</text>
<rect x="134.2" y="85.3" width="22" height="334.7" fill="#10b981" rx="3"/>
<rect x="160.2" y="339.7" width="22" height="80.3" fill="#94a3b8" rx="3"/>
<text x="158.2" y="80.3" text-anchor="middle" font-size="8" font-weight="600" fill="#10b981">+69</text>
<text x="158.2" y="436.0" text-anchor="middle" font-size="9" fill="#1e293b" transform="rotate(40 158.2 436.0)">Animation</text>
<rect x="193.1" y="135.3" width="22" height="284.7" fill="#10b981" rx="3"/>
<rect x="219.1" y="215.6" width="22" height="204.4" fill="#94a3b8" rx="3"/>
<text x="217.1" y="130.3" text-anchor="middle" font-size="8" font-weight="600" fill="#10b981">+21</text>
<text x="217.1" y="436.0" text-anchor="middle" font-size="9" fill="#1e293b" transform="rotate(40 217.1 436.0)">API/Backend</text>
<rect x="251.9" y="55.0" width="22" height="365.0" fill="#10b981" rx="3"/>
<rect x="277.9" y="339.7" width="22" height="80.3" fill="#94a3b8" rx="3"/>
<text x="275.9" y="50.0" text-anchor="middle" font-size="8" font-weight="600" fill="#10b981">+78</text>
<text x="275.9" y="436.0" text-anchor="middle" font-size="9" fill="#1e293b" transform="rotate(40 275.9 436.0)">CLI Tool</text>
<rect x="310.7" y="95.1" width="22" height="324.9" fill="#10b981" rx="3"/>
<rect x="336.7" y="339.7" width="22" height="80.3" fill="#94a3b8" rx="3"/>
<text x="334.7" y="90.1" text-anchor="middle" font-size="8" font-weight="600" fill="#10b981">+67</text>
<text x="334.7" y="436.0" text-anchor="middle" font-size="9" fill="#1e293b" transform="rotate(40 334.7 436.0)">Design System</text>
<rect x="369.5" y="175.4" width="22" height="244.6" fill="#10b981" rx="3"/>
<rect x="395.5" y="339.7" width="22" height="80.3" fill="#94a3b8" rx="3"/>
<text x="393.5" y="170.4" text-anchor="middle" font-size="8" font-weight="600" fill="#10b981">+45</text>
<text x="393.5" y="436.0" text-anchor="middle" font-size="9" fill="#1e293b" transform="rotate(40 393.5 436.0)">Fast Track</text>
<rect x="428.4" y="95.1" width="22" height="324.9" fill="#10b981" rx="3"/>
<rect x="454.4" y="299.6" width="22" height="120.5" fill="#94a3b8" rx="3"/>
<text x="452.4" y="90.1" text-anchor="middle" font-size="8" font-weight="600" fill="#10b981">+56</text>
<text x="452.4" y="436.0" text-anchor="middle" font-size="9" fill="#1e293b" transform="rotate(40 452.4 436.0)">Game</text>
<rect x="487.2" y="55.0" width="22" height="365.0" fill="#f59e0b" rx="3"/>
<rect x="513.2" y="299.6" width="22" height="120.5" fill="#94a3b8" rx="3"/>
<text x="511.2" y="50.0" text-anchor="middle" font-size="8" font-weight="600" fill="#f59e0b">+67</text>
<text x="511.2" y="436.0" text-anchor="middle" font-size="9" fill="#1e293b" transform="rotate(40 511.2 436.0)">Landing Page</text>
<rect x="546.0" y="55.0" width="22" height="365.0" fill="#10b981" rx="3"/>
<rect x="572.0" y="135.3" width="22" height="284.7" fill="#94a3b8" rx="3"/>
<text x="570.0" y="50.0" text-anchor="middle" font-size="8" font-weight="600" fill="#10b981">+21</text>
<text x="570.0" y="436.0" text-anchor="middle" font-size="9" fill="#1e293b" transform="rotate(40 570.0 436.0)">Learning</text>
<rect x="604.8" y="55.0" width="22" height="365.0" fill="#10b981" rx="3"/>
<rect x="630.8" y="390.8" width="22" height="29.2" fill="#94a3b8" rx="3"/>
<text x="628.8" y="50.0" text-anchor="middle" font-size="8" font-weight="600" fill="#10b981">+92</text>
<text x="628.8" y="436.0" text-anchor="middle" font-size="9" fill="#1e293b" transform="rotate(40 628.8 436.0)">Linear (Re-eval)</text>
<rect x="663.6" y="339.7" width="22" height="80.3" fill="#10b981" rx="3"/>
<rect x="689.6" y="339.7" width="22" height="80.3" fill="#94a3b8" rx="3"/>
<text x="687.6" y="436.0" text-anchor="middle" font-size="9" fill="#1e293b" transform="rotate(40 687.6 436.0)">Minimal</text>
<rect x="722.5" y="95.1" width="22" height="324.9" fill="#10b981" rx="3"/>
<rect x="748.5" y="299.6" width="22" height="120.5" fill="#94a3b8" rx="3"/>
<text x="746.5" y="90.1" text-anchor="middle" font-size="8" font-weight="600" fill="#10b981">+56</text>
<text x="746.5" y="436.0" text-anchor="middle" font-size="9" fill="#1e293b" transform="rotate(40 746.5 436.0)">Mobile App</text>
<rect x="781.3" y="175.4" width="22" height="244.6" fill="#10b981" rx="3"/>
<rect x="807.3" y="299.6" width="22" height="120.5" fill="#94a3b8" rx="3"/>
<text x="805.3" y="170.4" text-anchor="middle" font-size="8" font-weight="600" fill="#10b981">+34</text>
<text x="805.3" y="436.0" text-anchor="middle" font-size="9" fill="#1e293b" transform="rotate(40 805.3 436.0)">Multi-Product</text>
<rect x="840.1" y="55.0" width="22" height="365.0" fill="#f59e0b" rx="3"/>
<rect x="866.1" y="266.7" width="22" height="153.3" fill="#94a3b8" rx="3"/>
<text x="864.1" y="50.0" text-anchor="middle" font-size="8" font-weight="600" fill="#f59e0b">+58</text>
<text x="864.1" y="436.0" text-anchor="middle" font-size="9" fill="#1e293b" transform="rotate(40 864.1 436.0)">Remix</text>
<rect x="898.9" y="135.3" width="22" height="284.7" fill="#10b981" rx="3"/>
<rect x="924.9" y="299.6" width="22" height="120.5" fill="#94a3b8" rx="3"/>
<text x="922.9" y="130.3" text-anchor="middle" font-size="8" font-weight="600" fill="#10b981">+45</text>
<text x="922.9" y="436.0" text-anchor="middle" font-size="9" fill="#1e293b" transform="rotate(40 922.9 436.0)">Service</text>
<rect x="957.8" y="175.4" width="22" height="244.6" fill="#10b981" rx="3"/>
<rect x="983.8" y="339.7" width="22" height="80.3" fill="#94a3b8" rx="3"/>
<text x="981.8" y="170.4" text-anchor="middle" font-size="8" font-weight="600" fill="#10b981">+45</text>
<text x="981.8" y="436.0" text-anchor="middle" font-size="9" fill="#1e293b" transform="rotate(40 981.8 436.0)">Verbal Only</text>
<rect x="1016.6" y="55.0" width="22" height="365.0" fill="#f59e0b" rx="3"/>
<rect x="1042.6" y="299.6" width="22" height="120.5" fill="#94a3b8" rx="3"/>
<text x="1040.6" y="50.0" text-anchor="middle" font-size="8" font-weight="600" fill="#f59e0b">+67</text>
<text x="1040.6" y="436.0" text-anchor="middle" font-size="9" fill="#1e293b" transform="rotate(40 1040.6 436.0)">Web App</text>
<rect x="370.0" y="494" width="12" height="12" fill="#10b981" rx="2"/>
<text x="388.0" y="504" font-size="10" fill="#1e293b">with Cleaver (existing)</text>
<rect x="520.0" y="494" width="12" height="12" fill="#f59e0b" rx="2"/>
<text x="538.0" y="504" font-size="10" fill="#1e293b">with Cleaver (new)</text>
<rect x="680.0" y="494" width="12" height="12" fill="#94a3b8" rx="2"/>
<text x="698.0" y="504" font-size="10" fill="#1e293b">without Cleaver</text>
<line x1="70" y1="420" x2="1070" y2="420" stroke="#64748b" stroke-width="1"/>
</svg>