<svg xmlns="http://www.w3.org/2000/svg" viewBox="0 0 1100 520" font-family="system-ui,-apple-system,sans-serif">
<rect width="1100" height="520" fill="#ffffff" rx="12"/>
<text x="550.0" y="28" text-anchor="middle" font-size="15" font-weight="700" fill="#1e293b">Cleaver Skill Effectiveness — 16 Scenarios × 12 Quality Dimensions</text>
<line x1="70" y1="420.0" x2="1070" y2="420.0" stroke="#e2e8f0" stroke-width="1"/>
<text x="62" y="424.0" text-anchor="end" font-size="10" fill="#64748b">0%</text>
<line x1="70" y1="328.75" x2="1070" y2="328.75" stroke="#e2e8f0" stroke-width="1"/>
<text x="62" y="332.75" text-anchor="end" font-size="10" fill="#64748b">25%</text>
<line x1="70" y1="237.5" x2="1070" y2="237.5" stroke="#e2e8f0" stroke-width="1"/>
<text x="62" y="241.5" text-anchor="end" font-size="10" fill="#64748b">50%</text>
<line x1="70" y1="146.25" x2="1070" y2="146.25" stroke="#e2e8f0" stroke-width="1"/>
<text x="62" y="150.25" text-anchor="end" font-size="10" fill="#64748b">75%</text>
<line x1="70" y1="55.0" x2="1070" y2="55.0" stroke="#e2e8f0" stroke-width="1"/>
<text x="62" y="59.0" text-anchor="end" font-size="10" fill="#64748b">100%</text>
<rect x="77.2" y="95.1" width="22" height="324.9" fill="#10b981" rx="3"/>
<rect x="103.2" y="299.6" width="22" height="120.5" fill="#94a3b8" rx="3"/>
<text x="101.2" y="90.1" text-anchor="middle" font-size="8" font-weight="600" fill="#10b981">+56</text>
<text x="101.2" y="436.0" text-anchor="middle" font-size="9" fill="#1e293b" transform="rotate(40 101.2 436.0)">AI Product</text>
<rect x="139.8" y="175.4" width="22" height="244.6" fill="#10b981" rx="3"/>
<rect x="165.8" y="339.7" width="22" height="80.3" fill="#94a3b8" rx="3"/>
<text x="163.8" y="170.4" text-anchor="middle" font-size="8" font-weight="600" fill="#10b981">+45</text>
<text x="163.8" y="436.0" text-anchor="middle" font-size="9" fill="#1e293b" transform="rotate(40 163.8 436.0)">Animation</text>
<rect x="202.2" y="135.3" width="22" height="284.7" fill="#10b981" rx="3"/>
<rect x="228.2" y="215.6" width="22" height="204.4" fill="#94a3b8" rx="3"/>
<text x="226.2" y="130.3" text-anchor="middle" font-size="8" font-weight="600" fill="#10b981">+21</text>
<text x="226.2" y="436.0" text-anchor="middle" font-size="9" fill="#1e293b" transform="rotate(40 226.2 436.0)">API/Backend</text>
<rect x="264.8" y="55.0" width="22" height="365.0" fill="#10b981" rx="3"/>
<rect x="290.8" y="339.7" width="22" height="80.3" fill="#94a3b8" rx="3"/>
<text x="288.8" y="50.0" text-anchor="middle" font-size="8" font-weight="600" fill="#10b981">+78</text>
<text x="288.8" y="436.0" text-anchor="middle" font-size="9" fill="#1e293b" transform="rotate(40 288.8 436.0)">CLI Tool</text>
<rect x="327.2" y="95.1" width="22" height="324.9" fill="#10b981" rx="3"/>
<rect x="353.2" y="339.7" width="22" height="80.3" fill="#94a3b8" rx="3"/>
<text x="351.2" y="90.1" text-anchor="middle" font-size="8" font-weight="600" fill="#10b981">+67</text>
<text x="351.2" y="436.0" text-anchor="middle" font-size="9" fill="#1e293b" transform="rotate(40 351.2 436.0)">Design System</text>
<rect x="389.8" y="175.4" width="22" height="244.6" fill="#10b981" rx="3"/>
<rect x="415.8" y="339.7" width="22" height="80.3" fill="#94a3b8" rx="3"/>
<text x="413.8" y="170.4" text-anchor="middle" font-size="8" font-weight="600" fill="#10b981">+45</text>
<text x="413.8" y="436.0" text-anchor="middle" font-size="9" fill="#1e293b" transform="rotate(40 413.8 436.0)">Fast Track</text>
<rect x="452.2" y="95.1" width="22" height="324.9" fill="#10b981" rx="3"/>
<rect x="478.2" y="299.6" width="22" height="120.5" fill="#94a3b8" rx="3"/>
<text x="476.2" y="90.1" text-anchor="middle" font-size="8" font-weight="600" fill="#10b981">+56</text>
<text x="476.2" y="436.0" text-anchor="middle" font-size="9" fill="#1e293b" transform="rotate(40 476.2 436.0)">Game</text>
<rect x="514.8" y="55.0" width="22" height="365.0" fill="#10b981" rx="3"/>
<rect x="540.8" y="135.3" width="22" height="284.7" fill="#94a3b8" rx="3"/>
<text x="538.8" y="50.0" text-anchor="middle" font-size="8" font-weight="600" fill="#10b981">+21</text>
<text x="538.8" y="436.0" text-anchor="middle" font-size="9" fill="#1e293b" transform="rotate(40 538.8 436.0)">Learning</text>
<rect x="577.2" y="339.7" width="22" height="80.3" fill="#10b981" rx="3"/>
<rect x="603.2" y="339.7" width="22" height="80.3" fill="#94a3b8" rx="3"/>
<text x="601.2" y="436.0" text-anchor="middle" font-size="9" fill="#1e293b" transform="rotate(40 601.2 436.0)">Minimal</text>
<rect x="639.8" y="95.1" width="22" height="324.9" fill="#10b981" rx="3"/>
<rect x="665.8" y="299.6" width="22" height="120.5" fill="#94a3b8" rx="3"/>
<text x="663.8" y="90.1" text-anchor="middle" font-size="8" font-weight="600" fill="#10b981">+56</text>
<text x="663.8" y="436.0" text-anchor="middle" font-size="9" fill="#1e293b" transform="rotate(40 663.8 436.0)">Mobile App</text>
<rect x="702.2" y="175.4" width="22" height="244.6" fill="#10b981" rx="3"/>
<rect x="728.2" y="299.6" width="22" height="120.5" fill="#94a3b8" rx="3"/>
<text x="726.2" y="170.4" text-anchor="middle" font-size="8" font-weight="600" fill="#10b981">+34</text>
<text x="726.2" y="436.0" text-anchor="middle" font-size="9" fill="#1e293b" transform="rotate(40 726.2 436.0)">Multi-Product</text>
<rect x="764.8" y="135.3" width="22" height="284.7" fill="#10b981" rx="3"/>
<rect x="790.8" y="299.6" width="22" height="120.5" fill="#94a3b8" rx="3"/>
<text x="788.8" y="130.3" text-anchor="middle" font-size="8" font-weight="600" fill="#10b981">+45</text>
<text x="788.8" y="436.0" text-anchor="middle" font-size="9" fill="#1e293b" transform="rotate(40 788.8 436.0)">Service</text>
<rect x="827.2" y="175.4" width="22" height="244.6" fill="#10b981" rx="3"/>
<rect x="853.2" y="339.7" width="22" height="80.3" fill="#94a3b8" rx="3"/>
<text x="851.2" y="170.4" text-anchor="middle" font-size="8" font-weight="600" fill="#10b981">+45</text>
<text x="851.2" y="436.0" text-anchor="middle" font-size="9" fill="#1e293b" transform="rotate(40 851.2 436.0)">Verbal Only</text>
<rect x="889.8" y="55.0" width="22" height="365.0" fill="#f59e0b" rx="3"/>
<rect x="915.8" y="299.6" width="22" height="120.5" fill="#94a3b8" rx="3"/>
<text x="913.8" y="50.0" text-anchor="middle" font-size="8" font-weight="600" fill="#f59e0b">+67</text>
<text x="913.8" y="436.0" text-anchor="middle" font-size="9" fill="#1e293b" transform="rotate(40 913.8 436.0)">Landing Page</text>
<rect x="952.2" y="55.0" width="22" height="365.0" fill="#f59e0b" rx="3"/>
<rect x="978.2" y="266.7" width="22" height="153.3" fill="#94a3b8" rx="3"/>
<text x="976.2" y="50.0" text-anchor="middle" font-size="8" font-weight="600" fill="#f59e0b">+58</text>
<text x="976.2" y="436.0" text-anchor="middle" font-size="9" fill="#1e293b" transform="rotate(40 976.2 436.0)">Remix</text>
<rect x="1014.8" y="55.0" width="22" height="365.0" fill="#f59e0b" rx="3"/>
<rect x="1040.8" y="299.6" width="22" height="120.5" fill="#94a3b8" rx="3"/>
<text x="1038.8" y="50.0" text-anchor="middle" font-size="8" font-weight="600" fill="#f59e0b">+67</text>
<text x="1038.8" y="436.0" text-anchor="middle" font-size="9" fill="#1e293b" transform="rotate(40 1038.8 436.0)">Web App</text>
<rect x="370.0" y="494" width="12" height="12" fill="#10b981" rx="2"/>
<text x="388.0" y="504" font-size="10" fill="#1e293b">with Cleaver (existing)</text>
<rect x="520.0" y="494" width="12" height="12" fill="#f59e0b" rx="2"/>
<text x="538.0" y="504" font-size="10" fill="#1e293b">with Cleaver (new)</text>
<rect x="680.0" y="494" width="12" height="12" fill="#94a3b8" rx="2"/>
<text x="698.0" y="504" font-size="10" fill="#1e293b">without Cleaver</text>
<line x1="70" y1="420" x2="1070" y2="420" stroke="#64748b" stroke-width="1"/>
</svg>