<svg xmlns="http://www.w3.org/2000/svg" viewBox="0 0 960 500" font-family="system-ui,-apple-system,sans-serif">
<rect width="960" height="500" fill="#ffffff" rx="12"/>
<text x="480.0" y="28" text-anchor="middle" font-size="16" font-weight="700" fill="#1e293b">Cleaver Skill Effectiveness — 13 Scenarios × 9 Quality Dimensions</text>
<line x1="70" y1="405.0" x2="930" y2="405.0" stroke="#e2e8f0" stroke-width="1"/>
<text x="62" y="409.0" text-anchor="end" font-size="11" fill="#64748b">0%</text>
<line x1="70" y1="317.5" x2="930" y2="317.5" stroke="#e2e8f0" stroke-width="1"/>
<text x="62" y="321.5" text-anchor="end" font-size="11" fill="#64748b">25%</text>
<line x1="70" y1="230.0" x2="930" y2="230.0" stroke="#e2e8f0" stroke-width="1"/>
<text x="62" y="234.0" text-anchor="end" font-size="11" fill="#64748b">50%</text>
<line x1="70" y1="142.5" x2="930" y2="142.5" stroke="#e2e8f0" stroke-width="1"/>
<text x="62" y="146.5" text-anchor="end" font-size="11" fill="#64748b">75%</text>
<line x1="70" y1="55.0" x2="930" y2="55.0" stroke="#e2e8f0" stroke-width="1"/>
<text x="62" y="59.0" text-anchor="end" font-size="11" fill="#64748b">100%</text>
<rect x="79.1" y="93.5" width="22" height="311.5" fill="#10b981" rx="3"/>
<rect x="105.1" y="289.5" width="22" height="115.5" fill="#94a3b8" rx="3"/>
<text x="103.1" y="87.5" text-anchor="middle" font-size="9" font-weight="600" fill="#10b981">+56</text>
<text x="103.1" y="423.0" text-anchor="middle" font-size="10" fill="#1e293b" transform="rotate(35 103.1 423.0)">AI Product</text>
<rect x="145.2" y="170.5" width="22" height="234.5" fill="#10b981" rx="3"/>
<rect x="171.2" y="328.0" width="22" height="77.0" fill="#94a3b8" rx="3"/>
<text x="169.2" y="164.5" text-anchor="middle" font-size="9" font-weight="600" fill="#10b981">+45</text>
<text x="169.2" y="423.0" text-anchor="middle" font-size="10" fill="#1e293b" transform="rotate(35 169.2 423.0)">Animation</text>
<rect x="211.4" y="132.0" width="22" height="273.0" fill="#10b981" rx="3"/>
<rect x="237.4" y="209.0" width="22" height="196.0" fill="#94a3b8" rx="3"/>
<text x="235.4" y="126.0" text-anchor="middle" font-size="9" font-weight="600" fill="#10b981">+21</text>
<text x="235.4" y="423.0" text-anchor="middle" font-size="10" fill="#1e293b" transform="rotate(35 235.4 423.0)">API/Backend</text>
<rect x="277.5" y="55.0" width="22" height="350.0" fill="#10b981" rx="3"/>
<rect x="303.5" y="328.0" width="22" height="77.0" fill="#94a3b8" rx="3"/>
<text x="301.5" y="49.0" text-anchor="middle" font-size="9" font-weight="600" fill="#10b981">+78</text>
<text x="301.5" y="423.0" text-anchor="middle" font-size="10" fill="#1e293b" transform="rotate(35 301.5 423.0)">CLI Tool</text>
<rect x="343.7" y="93.5" width="22" height="311.5" fill="#10b981" rx="3"/>
<rect x="369.7" y="328.0" width="22" height="77.0" fill="#94a3b8" rx="3"/>
<text x="367.7" y="87.5" text-anchor="middle" font-size="9" font-weight="600" fill="#10b981">+67</text>
<text x="367.7" y="423.0" text-anchor="middle" font-size="10" fill="#1e293b" transform="rotate(35 367.7 423.0)">Design System</text>
<rect x="409.8" y="170.5" width="22" height="234.5" fill="#10b981" rx="3"/>
<rect x="435.8" y="328.0" width="22" height="77.0" fill="#94a3b8" rx="3"/>
<text x="433.8" y="164.5" text-anchor="middle" font-size="9" font-weight="600" fill="#10b981">+45</text>
<text x="433.8" y="423.0" text-anchor="middle" font-size="10" fill="#1e293b" transform="rotate(35 433.8 423.0)">Fast Track</text>
<rect x="476.0" y="93.5" width="22" height="311.5" fill="#10b981" rx="3"/>
<rect x="502.0" y="289.5" width="22" height="115.5" fill="#94a3b8" rx="3"/>
<text x="500.0" y="87.5" text-anchor="middle" font-size="9" font-weight="600" fill="#10b981">+56</text>
<text x="500.0" y="423.0" text-anchor="middle" font-size="10" fill="#1e293b" transform="rotate(35 500.0 423.0)">Game</text>
<rect x="542.2" y="55.0" width="22" height="350.0" fill="#10b981" rx="3"/>
<rect x="568.2" y="132.0" width="22" height="273.0" fill="#94a3b8" rx="3"/>
<text x="566.2" y="49.0" text-anchor="middle" font-size="9" font-weight="600" fill="#10b981">+21</text>
<text x="566.2" y="423.0" text-anchor="middle" font-size="10" fill="#1e293b" transform="rotate(35 566.2 423.0)">Learning</text>
<rect x="608.3" y="328.0" width="22" height="77.0" fill="#10b981" rx="3"/>
<rect x="634.3" y="328.0" width="22" height="77.0" fill="#94a3b8" rx="3"/>
<text x="632.3" y="423.0" text-anchor="middle" font-size="10" fill="#1e293b" transform="rotate(35 632.3 423.0)">Minimal</text>
<rect x="674.5" y="93.5" width="22" height="311.5" fill="#10b981" rx="3"/>
<rect x="700.5" y="289.5" width="22" height="115.5" fill="#94a3b8" rx="3"/>
<text x="698.5" y="87.5" text-anchor="middle" font-size="9" font-weight="600" fill="#10b981">+56</text>
<text x="698.5" y="423.0" text-anchor="middle" font-size="10" fill="#1e293b" transform="rotate(35 698.5 423.0)">Mobile App</text>
<rect x="740.6" y="170.5" width="22" height="234.5" fill="#10b981" rx="3"/>
<rect x="766.6" y="289.5" width="22" height="115.5" fill="#94a3b8" rx="3"/>
<text x="764.6" y="164.5" text-anchor="middle" font-size="9" font-weight="600" fill="#10b981">+34</text>
<text x="764.6" y="423.0" text-anchor="middle" font-size="10" fill="#1e293b" transform="rotate(35 764.6 423.0)">Multi-Product</text>
<rect x="806.8" y="132.0" width="22" height="273.0" fill="#10b981" rx="3"/>
<rect x="832.8" y="289.5" width="22" height="115.5" fill="#94a3b8" rx="3"/>
<text x="830.8" y="126.0" text-anchor="middle" font-size="9" font-weight="600" fill="#10b981">+45</text>
<text x="830.8" y="423.0" text-anchor="middle" font-size="10" fill="#1e293b" transform="rotate(35 830.8 423.0)">Service</text>
<rect x="872.9" y="170.5" width="22" height="234.5" fill="#10b981" rx="3"/>
<rect x="898.9" y="328.0" width="22" height="77.0" fill="#94a3b8" rx="3"/>
<text x="896.9" y="164.5" text-anchor="middle" font-size="9" font-weight="600" fill="#10b981">+45</text>
<text x="896.9" y="423.0" text-anchor="middle" font-size="10" fill="#1e293b" transform="rotate(35 896.9 423.0)">Verbal Only</text>
<rect x="360.0" y="472" width="12" height="12" fill="#10b981" rx="2"/>
<text x="378.0" y="482" font-size="11" fill="#1e293b">with Cleaver</text>
<rect x="490.0" y="472" width="12" height="12" fill="#94a3b8" rx="2"/>
<text x="508.0" y="482" font-size="11" fill="#1e293b">without Cleaver</text>
<line x1="70" y1="405" x2="930" y2="405" stroke="#64748b" stroke-width="1"/>
</svg>