<svg xmlns="http://www.w3.org/2000/svg" viewBox="0 0 850 500" font-family="system-ui,-apple-system,sans-serif">
<rect width="850" height="500" fill="#ffffff" rx="12"/>
<text x="425.0" y="28" text-anchor="middle" font-size="15" font-weight="700" fill="#1e293b">Quality Dimension Coverage — with vs without Cleaver</text>
<line x1="150.0" y1="50" x2="150.0" y2="470" stroke="#e2e8f0" stroke-width="1"/>
<text x="150.0" y="42" text-anchor="middle" font-size="10" fill="#64748b">0%</text>
<line x1="315.0" y1="50" x2="315.0" y2="470" stroke="#e2e8f0" stroke-width="1"/>
<text x="315.0" y="42" text-anchor="middle" font-size="10" fill="#64748b">25%</text>
<line x1="480.0" y1="50" x2="480.0" y2="470" stroke="#e2e8f0" stroke-width="1"/>
<text x="480.0" y="42" text-anchor="middle" font-size="10" fill="#64748b">50%</text>
<line x1="645.0" y1="50" x2="645.0" y2="470" stroke="#e2e8f0" stroke-width="1"/>
<text x="645.0" y="42" text-anchor="middle" font-size="10" fill="#64748b">75%</text>
<line x1="810.0" y1="50" x2="810.0" y2="470" stroke="#e2e8f0" stroke-width="1"/>
<text x="810.0" y="42" text-anchor="middle" font-size="10" fill="#64748b">100%</text>
<text x="140" y="71.5" text-anchor="end" font-size="11" fill="#1e293b">Product Analysis</text>
<rect x="150" y="50.5" width="582.4" height="16" fill="#10b981" rx="3"/>
<text x="737.4" y="64.5" font-size="9" font-weight="600" fill="#10b981">15/17</text>
<rect x="150" y="68.5" width="660.0" height="16" fill="#94a3b8" rx="3"/>
<text x="815.0" y="82.5" font-size="9" fill="#64748b">17/17</text>
<text x="140" y="106.5" text-anchor="end" font-size="11" fill="#1e293b">Multiple Prompts</text>
<rect x="150" y="85.5" width="621.2" height="16" fill="#10b981" rx="3"/>
<text x="776.2" y="99.5" font-size="9" font-weight="600" fill="#10b981">16/17</text>
<rect x="150" y="103.5" width="388.2" height="16" fill="#94a3b8" rx="3"/>
<text x="543.2" y="117.5" font-size="9" fill="#64748b">10/17</text>
<text x="140" y="141.5" text-anchor="end" font-size="11" fill="#1e293b">Done Criteria</text>
<rect x="150" y="120.5" width="349.4" height="16" fill="#10b981" rx="3"/>
<text x="504.4" y="134.5" font-size="9" font-weight="600" fill="#10b981">9/17</text>
<rect x="150" y="138.5" width="0.0" height="16" fill="#94a3b8" rx="3"/>
<text x="155.0" y="152.5" font-size="9" fill="#64748b">0/17</text>
<text x="140" y="176.5" text-anchor="end" font-size="11" fill="#1e293b">Why Annotations</text>
<rect x="150" y="155.5" width="621.2" height="16" fill="#10b981" rx="3"/>
<text x="776.2" y="169.5" font-size="9" font-weight="600" fill="#10b981">16/17</text>
<rect x="150" y="173.5" width="0.0" height="16" fill="#94a3b8" rx="3"/>
<text x="155.0" y="187.5" font-size="9" fill="#64748b">0/17</text>
<text x="140" y="211.5" text-anchor="end" font-size="11" fill="#1e293b">Pro Tips</text>
<rect x="150" y="190.5" width="504.7" height="16" fill="#10b981" rx="3"/>
<text x="659.7" y="204.5" font-size="9" font-weight="600" fill="#10b981">13/17</text>
<rect x="150" y="208.5" width="116.5" height="16" fill="#94a3b8" rx="3"/>
<text x="271.5" y="222.5" font-size="9" fill="#64748b">3/17</text>
<text x="140" y="246.5" text-anchor="end" font-size="11" fill="#1e293b">Build Order</text>
<rect x="150" y="225.5" width="465.9" height="16" fill="#10b981" rx="3"/>
<text x="620.9" y="239.5" font-size="9" font-weight="600" fill="#10b981">12/17</text>
<rect x="150" y="243.5" width="38.8" height="16" fill="#94a3b8" rx="3"/>
<text x="193.8" y="257.5" font-size="9" fill="#64748b">1/17</text>
<text x="140" y="281.5" text-anchor="end" font-size="11" fill="#1e293b">Domain Framework</text>
<rect x="150" y="260.5" width="504.7" height="16" fill="#10b981" rx="3"/>
<text x="659.7" y="274.5" font-size="9" font-weight="600" fill="#10b981">13/17</text>
<rect x="150" y="278.5" width="232.9" height="16" fill="#94a3b8" rx="3"/>
<text x="387.9" y="292.5" font-size="9" fill="#64748b">6/17</text>
<text x="140" y="316.5" text-anchor="end" font-size="11" fill="#1e293b">Not-To-Do</text>
<rect x="150" y="295.5" width="660.0" height="16" fill="#10b981" rx="3"/>
<text x="815.0" y="309.5" font-size="9" font-weight="600" fill="#10b981">17/17</text>
<rect x="150" y="313.5" width="232.9" height="16" fill="#94a3b8" rx="3"/>
<text x="387.9" y="327.5" font-size="9" fill="#64748b">6/17</text>
<text x="140" y="351.5" text-anchor="end" font-size="11" fill="#1e293b">Soul Capture</text>
<rect x="150" y="330.5" width="660.0" height="16" fill="#10b981" rx="3"/>
<text x="815.0" y="344.5" font-size="9" font-weight="600" fill="#10b981">17/17</text>
<rect x="150" y="348.5" width="271.8" height="16" fill="#94a3b8" rx="3"/>
<text x="426.8" y="362.5" font-size="9" fill="#64748b">7/17</text>
<text x="140" y="386.5" text-anchor="end" font-size="11" fill="#1e293b">Destination Not Route *</text>
<rect x="150" y="365.5" width="660.0" height="16" fill="#10b981" rx="3"/>
<text x="815.0" y="379.5" font-size="9" font-weight="600" fill="#10b981">5/5</text>
<rect x="150" y="383.5" width="0.0" height="16" fill="#94a3b8" rx="3"/>
<text x="155.0" y="397.5" font-size="9" fill="#64748b">0/4</text>
<text x="140" y="421.5" text-anchor="end" font-size="11" fill="#1e293b">Prompts Standalone *</text>
<rect x="150" y="400.5" width="660.0" height="16" fill="#10b981" rx="3"/>
<text x="815.0" y="414.5" font-size="9" font-weight="600" fill="#10b981">5/5</text>
<rect x="150" y="418.5" width="495.0" height="16" fill="#94a3b8" rx="3"/>
<text x="650.0" y="432.5" font-size="9" fill="#64748b">3/4</text>
<text x="140" y="456.5" text-anchor="end" font-size="11" fill="#1e293b">Usage Guidance *</text>
<rect x="150" y="435.5" width="660.0" height="16" fill="#10b981" rx="3"/>
<text x="815.0" y="449.5" font-size="9" font-weight="600" fill="#10b981">5/5</text>
<rect x="150" y="453.5" width="0.0" height="16" fill="#94a3b8" rx="3"/>
<text x="155.0" y="467.5" font-size="9" fill="#64748b">0/4</text>
<rect x="305.0" y="478" width="12" height="12" fill="#10b981" rx="2"/>
<text x="323.0" y="488" font-size="10" fill="#1e293b">with Cleaver</text>
<rect x="435.0" y="478" width="12" height="12" fill="#94a3b8" rx="2"/>
<text x="453.0" y="488" font-size="10" fill="#1e293b">without Cleaver</text>
<text x="810" y="488" text-anchor="end" font-size="9" fill="#64748b">* tested on 3 new scenarios</text>
</svg>