<svg xmlns="http://www.w3.org/2000/svg" viewBox="0 0 800 420" font-family="system-ui,-apple-system,sans-serif">
<rect width="800" height="420" fill="#ffffff" rx="12"/>
<text x="400.0" y="28" text-anchor="middle" font-size="16" font-weight="700" fill="#1e293b">Quality Dimension Coverage — with vs without Cleaver</text>
<line x1="130.0" y1="50" x2="130.0" y2="390" stroke="#e2e8f0" stroke-width="1"/>
<text x="130.0" y="42" text-anchor="middle" font-size="10" fill="#64748b">0%</text>
<line x1="287.5" y1="50" x2="287.5" y2="390" stroke="#e2e8f0" stroke-width="1"/>
<text x="287.5" y="42" text-anchor="middle" font-size="10" fill="#64748b">25%</text>
<line x1="445.0" y1="50" x2="445.0" y2="390" stroke="#e2e8f0" stroke-width="1"/>
<text x="445.0" y="42" text-anchor="middle" font-size="10" fill="#64748b">50%</text>
<line x1="602.5" y1="50" x2="602.5" y2="390" stroke="#e2e8f0" stroke-width="1"/>
<text x="602.5" y="42" text-anchor="middle" font-size="10" fill="#64748b">75%</text>
<line x1="760.0" y1="50" x2="760.0" y2="390" stroke="#e2e8f0" stroke-width="1"/>
<text x="760.0" y="42" text-anchor="middle" font-size="10" fill="#64748b">100%</text>
<text x="120" y="72.9" text-anchor="end" font-size="12" fill="#1e293b">Product Analysis</text>
<rect x="130" y="49.4" width="533.1" height="18" fill="#10b981" rx="3"/>
<text x="669.1" y="64.4" font-size="10" font-weight="600" fill="#10b981">11/13</text>
<rect x="130" y="70.4" width="630.0" height="18" fill="#94a3b8" rx="3"/>
<text x="766.0" y="85.4" font-size="10" fill="#64748b">13/13</text>
<text x="120" y="110.7" text-anchor="end" font-size="12" fill="#1e293b">Multiple Prompts</text>
<rect x="130" y="87.2" width="581.5" height="18" fill="#10b981" rx="3"/>
<text x="717.5" y="102.2" font-size="10" font-weight="600" fill="#10b981">12/13</text>
<rect x="130" y="108.2" width="339.2" height="18" fill="#94a3b8" rx="3"/>
<text x="475.2" y="123.2" font-size="10" fill="#64748b">7/13</text>
<text x="120" y="148.4" text-anchor="end" font-size="12" fill="#1e293b">Done Criteria</text>
<rect x="130" y="124.9" width="242.3" height="18" fill="#10b981" rx="3"/>
<text x="378.3" y="139.9" font-size="10" font-weight="600" fill="#10b981">5/13</text>
<rect x="130" y="145.9" width="0.0" height="18" fill="#94a3b8" rx="3"/>
<text x="136.0" y="160.9" font-size="10" fill="#64748b">0/13</text>
<text x="120" y="186.2" text-anchor="end" font-size="12" fill="#1e293b">Why Annotations</text>
<rect x="130" y="162.7" width="581.5" height="18" fill="#10b981" rx="3"/>
<text x="717.5" y="177.7" font-size="10" font-weight="600" fill="#10b981">12/13</text>
<rect x="130" y="183.7" width="0.0" height="18" fill="#94a3b8" rx="3"/>
<text x="136.0" y="198.7" font-size="10" fill="#64748b">0/13</text>
<text x="120" y="224.0" text-anchor="end" font-size="12" fill="#1e293b">Pro Tips</text>
<rect x="130" y="200.5" width="436.2" height="18" fill="#10b981" rx="3"/>
<text x="572.2" y="215.5" font-size="10" font-weight="600" fill="#10b981">9/13</text>
<rect x="130" y="221.5" width="145.4" height="18" fill="#94a3b8" rx="3"/>
<text x="281.4" y="236.5" font-size="10" fill="#64748b">3/13</text>
<text x="120" y="261.8" text-anchor="end" font-size="12" fill="#1e293b">Build Order</text>
<rect x="130" y="238.3" width="339.2" height="18" fill="#10b981" rx="3"/>
<text x="475.2" y="253.3" font-size="10" font-weight="600" fill="#10b981">7/13</text>
<rect x="130" y="259.3" width="48.5" height="18" fill="#94a3b8" rx="3"/>
<text x="184.5" y="274.3" font-size="10" fill="#64748b">1/13</text>
<text x="120" y="299.6" text-anchor="end" font-size="12" fill="#1e293b">Domain Framework</text>
<rect x="130" y="276.1" width="387.7" height="18" fill="#10b981" rx="3"/>
<text x="523.7" y="291.1" font-size="10" font-weight="600" fill="#10b981">8/13</text>
<rect x="130" y="297.1" width="242.3" height="18" fill="#94a3b8" rx="3"/>
<text x="378.3" y="312.1" font-size="10" fill="#64748b">5/13</text>
<text x="120" y="337.3" text-anchor="end" font-size="12" fill="#1e293b">Not-To-Do</text>
<rect x="130" y="313.8" width="630.0" height="18" fill="#10b981" rx="3"/>
<text x="766.0" y="328.8" font-size="10" font-weight="600" fill="#10b981">13/13</text>
<rect x="130" y="334.8" width="290.8" height="18" fill="#94a3b8" rx="3"/>
<text x="426.8" y="349.8" font-size="10" fill="#64748b">6/13</text>
<text x="120" y="375.1" text-anchor="end" font-size="12" fill="#1e293b">Soul Capture</text>
<rect x="130" y="351.6" width="630.0" height="18" fill="#10b981" rx="3"/>
<text x="766.0" y="366.6" font-size="10" font-weight="600" fill="#10b981">13/13</text>
<rect x="130" y="372.6" width="193.8" height="18" fill="#94a3b8" rx="3"/>
<text x="329.8" y="387.6" font-size="10" fill="#64748b">4/13</text>
<rect x="280.0" y="398" width="12" height="12" fill="#10b981" rx="2"/>
<text x="298.0" y="408" font-size="11" fill="#1e293b">with Cleaver</text>
<rect x="410.0" y="398" width="12" height="12" fill="#94a3b8" rx="2"/>
<text x="428.0" y="408" font-size="11" fill="#1e293b">without Cleaver</text>
</svg>